<svg xmlns="http://www.w3.org/2000/svg" viewBox="0 0 796 1024">
  <path d="M760.804 580.261c.006-.296.011-.586.011-.882 0-60.839-49.499-110.339-110.342-110.339h-30.117l132.045-318.477c23.273-56.195-3.504-120.867-59.711-144.164-56.212-23.281-120.883 3.508-144.163 59.719l-82.524 199.219L383.487 66.11C360.198 9.907 295.526-16.882 239.323 6.399c-56.203 23.289-82.992 87.953-59.711 144.157L251.3 323.634a111.076 111.076 0 0 0-24.414 19.547c-20.14-21.406-48.687-34.821-80.328-34.829-60.844 0-110.336 49.5-110.336 110.344v241.01c0 199.771 162.524 362.297 362.298 362.297 199.764 0 362.289-162.526 362.289-362.297l-.006-79.445zM262.293 61.837c25.633-10.625 55.133 1.602 65.758 27.242l110.235 266.134c4.648 11.211 15.586 18.523 27.719 18.523s23.071-7.312 27.719-18.523L603.956 89.079c10.627-25.64 40.129-37.867 65.769-27.25 25.64 10.633 37.86 40.133 27.238 65.765L555.395 469.04H417.559l.008-50.344c-.008-59.922-48.039-108.805-107.617-110.273l-74.899-180.821c-10.625-25.64 1.601-55.141 27.242-65.766zm44.93 407.203a109.56 109.56 0 0 0-50.328 12.203v-62.547c0-27.758 22.579-50.336 50.328-50.336 27.758 0 50.336 22.586 50.344 50.336l-.008 50.344h-50.336zM96.222 418.697c0-27.758 22.578-50.344 50.328-50.344 27.758.008 50.336 22.594 50.344 50.344v160.671c-.007 27.75-22.585 50.33-50.336 50.33s-50.336-22.579-50.336-50.33V418.697zM398.52 962.002c-160.61 0-292.352-125.912-301.735-284.211a109.65 109.65 0 0 0 49.773 11.913c31.641 0 60.195-13.414 80.336-34.827 20.14 21.413 48.688 34.827 80.336 34.827h262.904c16.572 0 30.003-13.426 30.003-29.998 0-16.566-13.431-30.003-30.003-30.003H307.23c-27.75 0-50.336-22.585-50.336-50.335.008-27.749 22.586-50.327 50.336-50.327h268.046c.046 0 .102.007.148.007.074 0 .137-.007.205-.007h74.843c27.648 0 50.159 22.39 50.347 49.991-.011.273-.011.558-.011.836v79.838c0 166.684-135.609 302.296-302.289 302.296z"/>
</svg>
